<svg width="22" height="21" viewBox="0 0 22 21" fill="none" xmlns="http://www.w3.org/2000/svg">
<g clip-path="url(#clip0_1_256)">
<path d="M15.1434 5.19297C15.2971 4.62948 15.3394 4.04001 15.2679 3.45939C15.1964 2.87878 15.0125 2.3188 14.7271 1.81254C14.6568 1.68715 14.5556 1.58302 14.4337 1.51061C14.3118 1.4382 14.1736 1.40007 14.0329 1.40004C13.3912 1.39818 12.7573 1.54563 12.1788 1.83136C11.6002 2.11709 11.092 2.5337 10.692 3.05004H9.35561C8.95563 2.5337 8.44736 2.11709 7.86882 1.83136C7.29028 1.54563 6.65644 1.39818 6.01471 1.40004C5.87398 1.40007 5.73575 1.4382 5.61388 1.51061C5.49202 1.58302 5.39083 1.68715 5.32046 1.81254C5.03507 2.3188 4.85118 2.87878 4.77968 3.45939C4.70819 4.04001 4.75052 4.62948 4.90419 5.19297C4.58459 5.80216 4.41526 6.48277 4.41107 7.17503V7.72503C4.41233 8.64838 4.71413 9.54469 5.26833 10.2709C5.82253 10.9972 6.59719 11.5115 7.46867 11.7318C7.21595 12.1865 7.08327 12.7013 7.0838 13.225V13.5H6.01471C5.66028 13.5 5.32037 13.3552 5.06975 13.0973C4.81914 12.8394 4.67834 12.4897 4.67834 12.125C4.67746 11.323 4.36742 10.5541 3.81626 9.98704C3.26509 9.41994 2.51781 9.10094 1.73834 9.10003C1.52569 9.10003 1.32174 9.18695 1.17137 9.34167C1.021 9.49639 0.936523 9.70623 0.936523 9.92503C0.936523 10.1438 1.021 10.3537 1.17137 10.5084C1.32174 10.6631 1.52569 10.75 1.73834 10.75C2.09277 10.75 2.43268 10.8949 2.68329 11.1528C2.93391 11.4106 3.07471 11.7604 3.07471 12.125C3.07559 12.927 3.38562 13.6959 3.93679 14.263C4.48795 14.8301 5.23524 15.1491 6.01471 15.15H7.0838V15.975C7.0838 16.1938 7.16827 16.4037 7.31864 16.5584C7.46901 16.7131 7.67296 16.8 7.88561 16.8C8.09827 16.8 8.30222 16.7131 8.45259 16.5584C8.60296 16.4037 8.68743 16.1938 8.68743 15.975V13.225C8.68743 12.8604 8.82823 12.5106 9.07885 12.2528C9.32946 11.9949 9.66937 11.85 10.0238 11.85C10.3782 11.85 10.7181 11.9949 10.9687 12.2528C11.2194 12.5106 11.3602 12.8604 11.3602 13.225V15.975C11.3602 16.1938 11.4446 16.4037 11.595 16.5584C11.7454 16.7131 11.9493 16.8 12.162 16.8C12.3746 16.8 12.5786 16.7131 12.7289 16.5584C12.8793 16.4037 12.9638 16.1938 12.9638 15.975V13.225C12.9643 12.7013 12.8316 12.1865 12.5789 11.7318C13.4504 11.5115 14.2251 10.9972 14.7793 10.2709C15.3335 9.54469 15.6353 8.64838 15.6365 7.72503V7.17503C15.6323 6.48277 15.463 5.80216 15.1434 5.19297ZM14.0329 7.72503C14.0329 8.38144 13.7795 9.01097 13.3283 9.47512C12.8772 9.93927 12.2654 10.2 11.6274 10.2H8.42016C7.78219 10.2 7.17036 9.93927 6.71925 9.47512C6.26814 9.01097 6.01471 8.38144 6.01471 7.72503V7.17503C6.02156 6.68341 6.16357 6.20383 6.4243 5.79179C6.50741 5.68107 6.56089 5.54989 6.57942 5.4113C6.59794 5.2727 6.58086 5.13154 6.52987 5.00185C6.29987 4.39031 6.29039 3.71422 6.50315 3.0961C6.86323 3.16436 7.20578 3.30825 7.5094 3.51881C7.81302 3.72936 8.0712 4.00205 8.26781 4.31985C8.3403 4.43636 8.4401 4.53224 8.55803 4.59867C8.67596 4.66511 8.80823 4.69996 8.94268 4.70004H11.1042C11.2388 4.70008 11.3712 4.66528 11.4893 4.59884C11.6073 4.5324 11.7072 4.43645 11.7798 4.31985C11.9763 4.00197 12.2345 3.72921 12.5381 3.51865C12.8417 3.30809 13.1843 3.16424 13.5444 3.0961C13.7572 3.71422 13.7477 4.39031 13.5177 5.00185C13.4688 5.13251 13.453 5.27384 13.4718 5.41252C13.4906 5.55119 13.5435 5.68266 13.6253 5.79454C13.8849 6.20598 14.0262 6.68454 14.0329 7.17503V7.72503Z" fill="white"/>
</g>
<defs>
<clipPath id="clip0_1_256">
<rect width="21" height="21" fill="white" transform="translate(0.936523)"/>
</clipPath>
</defs>
</svg>
