<svg width="31" height="31" viewBox="0 0 31 31" fill="none" xmlns="http://www.w3.org/2000/svg">
<path d="M22.3333 8H7.66667C7.22464 8 6.80072 8.17559 6.48816 8.48816C6.17559 8.80072 6 9.22464 6 9.66667V24.3333C6 24.7754 6.17559 25.1993 6.48816 25.5118C6.80072 25.8244 7.22464 26 7.66667 26H22.3333C22.7754 26 23.1993 25.8244 23.5118 25.5118C23.8244 25.1993 24 24.7754 24 24.3333V9.66667C24 9.22464 23.8244 8.80072 23.5118 8.48816C23.1993 8.17559 22.7754 8 22.3333 8ZM22 24H8V10H22V24ZM13.6667 21V16.3333C13.6669 16.1255 13.7318 15.9229 13.8524 15.7537C13.9731 15.5845 14.1435 15.4571 14.3399 15.3892C14.5363 15.3213 14.749 15.3162 14.9484 15.3748C15.1478 15.4333 15.324 15.5525 15.4525 15.7158C15.9604 15.4496 16.5284 15.3189 17.1016 15.3364C17.6748 15.3539 18.2338 15.519 18.7246 15.8156C19.2153 16.1123 19.6212 16.5306 19.903 17.0301C20.1849 17.5295 20.3331 18.0932 20.3333 18.6667V21C20.3333 21.2652 20.228 21.5196 20.0404 21.7071C19.8529 21.8946 19.5985 22 19.3333 22C19.0681 22 18.8138 21.8946 18.6262 21.7071C18.4387 21.5196 18.3333 21.2652 18.3333 21V18.6667C18.3333 18.313 18.1929 17.9739 17.9428 17.7239C17.6928 17.4738 17.3536 17.3333 17 17.3333C16.6464 17.3333 16.3072 17.4738 16.0572 17.7239C15.8071 17.9739 15.6667 18.313 15.6667 18.6667V21C15.6667 21.2652 15.5613 21.5196 15.3738 21.7071C15.1862 21.8946 14.9319 22 14.6667 22C14.4015 22 14.1471 21.8946 13.9596 21.7071C13.772 21.5196 13.6667 21.2652 13.6667 21ZM12.3333 16.3333V21C12.3333 21.2652 12.228 21.5196 12.0404 21.7071C11.8529 21.8946 11.5985 22 11.3333 22C11.0681 22 10.8138 21.8946 10.6262 21.7071C10.4387 21.5196 10.3333 21.2652 10.3333 21V16.3333C10.3333 16.0681 10.4387 15.8138 10.6262 15.6262C10.8138 15.4387 11.0681 15.3333 11.3333 15.3333C11.5985 15.3333 11.8529 15.4387 12.0404 15.6262C12.228 15.8138 12.3333 16.0681 12.3333 16.3333ZM10 13C10 12.7363 10.0782 12.4785 10.2247 12.2592C10.3712 12.04 10.5795 11.8691 10.8231 11.7682C11.0667 11.6672 11.3348 11.6408 11.5935 11.6923C11.8521 11.7437 12.0897 11.8707 12.2761 12.0572C12.4626 12.2437 12.5896 12.4812 12.641 12.7399C12.6925 12.9985 12.6661 13.2666 12.5652 13.5102C12.4643 13.7539 12.2934 13.9621 12.0741 14.1086C11.8548 14.2551 11.597 14.3333 11.3333 14.3333C10.9797 14.3333 10.6406 14.1929 10.3905 13.9428C10.1405 13.6928 10 13.3536 10 13Z" fill="white"/>
</svg>
