<svg width="18" height="18" viewBox="0 0 18 18" fill="none" xmlns="http://www.w3.org/2000/svg">
<path d="M17.0196 12.0172L13.1708 10.2918L13.1561 10.2853C12.9059 10.1774 12.6327 10.134 12.3614 10.159C12.0901 10.184 11.8294 10.2766 11.6032 10.4283C11.5714 10.4495 11.5409 10.4725 11.5116 10.497L9.68817 12.0499C8.62565 11.4737 7.52798 10.385 6.95095 9.33554L8.50877 7.48348C8.53381 7.45359 8.55701 7.4222 8.57824 7.38949C8.726 7.16403 8.81571 6.90553 8.83938 6.63702C8.86305 6.3685 8.81995 6.09829 8.71392 5.85046C8.7114 5.84572 8.70921 5.8408 8.70738 5.83575L6.98282 1.98043C6.84126 1.65802 6.59967 1.38974 6.29378 1.21531C5.9879 1.04088 5.63399 0.969555 5.28442 1.0119C4.09797 1.16776 3.00882 1.75017 2.22038 2.65035C1.43195 3.55054 0.998152 4.70694 1.00001 5.90359C1.00001 12.5738 6.42622 18 13.0964 18C14.2931 18.0018 15.4495 17.568 16.3496 16.7796C17.2498 15.9912 17.8322 14.902 17.9881 13.7156C18.0304 13.366 17.9591 13.0121 17.7847 12.7062C17.6103 12.4003 17.342 12.1587 17.0196 12.0172ZM13.0964 16.0384C10.4095 16.0352 7.83354 14.9664 5.93359 13.0664C4.03364 11.1665 2.96483 8.59052 2.96159 5.90359C2.95971 5.22643 3.1896 4.56902 3.61306 4.04059C4.03651 3.51217 4.62803 3.14455 5.28933 2.99882L6.82753 6.43158L5.26154 8.29672C5.23622 8.32688 5.21275 8.35854 5.19125 8.39153C5.03689 8.62737 4.94615 8.89911 4.92782 9.18038C4.90949 9.46164 4.96419 9.74287 5.08663 9.99675C5.85655 11.5726 7.44298 13.1484 9.03512 13.9199C9.2907 14.0411 9.57334 14.0938 9.85542 14.0731C10.1375 14.0523 10.4094 13.9587 10.6444 13.8014C10.676 13.7801 10.7063 13.7569 10.7352 13.7319L12.5684 12.1733L16.0012 13.7107C15.8555 14.372 15.4878 14.9635 14.9594 15.3869C14.431 15.8104 13.7736 16.0403 13.0964 16.0384Z" fill="white"/>
</svg>
